<?xml version="1.0" encoding="UTF-8"?>
<!DOCTYPE svg PUBLIC "-//W3C//DTD SVG 1.1//EN" "http://www.w3.org/Graphics/SVG/1.1/DTD/svg11.dtd">
<!-- Creator: CorelDRAW X7 -->
<svg xmlns="http://www.w3.org/2000/svg" xml:space="preserve" width="3000px" height="3000px" version="1.1" style="shape-rendering:geometricPrecision; text-rendering:geometricPrecision; image-rendering:optimizeQuality; fill-rule:evenodd; clip-rule:evenodd"
viewBox="0 0 3000 3000"
 xmlns:xlink="http://www.w3.org/1999/xlink">
 <defs>
  <style type="text/css">
   <![CDATA[
    .fil5 {fill:#991715}
    .fil0 {fill:#E91F25}
    .fil3 {fill:url(#id0)}
    .fil4 {fill:url(#id1)}
    .fil1 {fill:url(#id2)}
    .fil2 {fill:url(#id3)}
   ]]>
  </style>
  <linearGradient id="id0" gradientUnits="userSpaceOnUse" x1="1703.79" y1="1290.1" x2="1703.79" y2="1037.19">
   <stop offset="0" style="stop-opacity:1; stop-color:#E91F25"/>
   <stop offset="1" style="stop-opacity:1; stop-color:#A7181E"/>
  </linearGradient>
  <linearGradient id="id1" gradientUnits="userSpaceOnUse" x1="1806.97" y1="1698.17" x2="1806.97" y2="1367.53">
   <stop offset="0" style="stop-opacity:1; stop-color:#AE1B23"/>
   <stop offset="1" style="stop-opacity:1; stop-color:#680307"/>
  </linearGradient>
  <linearGradient id="id2" gradientUnits="userSpaceOnUse" x1="806.153" y1="1701.75" x2="806.153" y2="1367.53">
   <stop offset="0" style="stop-opacity:1; stop-color:#A21920"/>
   <stop offset="1" style="stop-opacity:1; stop-color:#E91F25"/>
  </linearGradient>
  <linearGradient id="id3" gradientUnits="userSpaceOnUse" x1="1125.84" y1="1032.31" x2="1125.84" y2="1367.53">
   <stop offset="0" style="stop-opacity:1; stop-color:#B31B28"/>
   <stop offset="1" style="stop-opacity:1; stop-color:#73090B"/>
  </linearGradient>
 </defs>
 <g id="Layer_x0020_1">
  <metadata id="CorelCorpID_0Corel-Layer"/>
  <g id="_2902231857504">
   <g>
    <path class="fil0" d="M521 1543l610 -7c54,0 127,-13 182,-39 62,-30 86,-66 86,-129 0,-109 -106,-187 -269,-187l-456 1c-74,0 -147,16 -210,46 -60,29 -86,66 -124,136 8,-127 63,-222 153,-280 71,-47 172,-66 264,-66l417 0c202,0 485,69 492,314 4,135 -65,247 -201,316 -1,0 -79,45 -182,57 -61,8 -393,11 -558,11l-619 0 203 -235c57,-66 99,-112 156,-132 72,-27 212,-29 240,-29 38,0 76,0 114,0 -135,66 -258,159 -298,223z"/>
    <g>
     <path class="fil1" d="M1413 1368c0,72 -30,111 -94,142 -55,26 -127,40 -188,40l-637 7 15 -22c12,-20 30,-39 47,-55 22,-21 46,-41 70,-59 25,-19 51,-37 78,-53l-247 0c-1,0 -1,0 -1,0 -25,12 -46,28 -66,47 -25,23 -48,49 -70,75l-183 212 588 0c79,0 158,-1 237,-2 67,0 133,-1 199,-3 25,-1 50,-2 75,-3 15,0 30,-1 45,-3 43,-5 85,-16 126,-32 12,-5 25,-11 37,-16 5,-3 9,-5 14,-8 74,-38 138,-93 171,-171 13,-31 20,-64 22,-96l-238 0c0,0 0,0 0,0z"/>
     <path class="fil2" d="M704 1368c19,-12 38,-23 57,-34 -19,0 -37,0 -56,0 -18,0 -36,1 -54,1 -29,2 -58,4 -87,7 -30,4 -65,10 -94,20 -5,2 -9,4 -13,6l247 0zm-30 -201l456 0c58,0 120,9 173,36 43,22 79,55 98,100 8,20 12,42 12,65l238 0c1,-12 1,-24 1,-36 -7,-237 -287,-300 -478,-300l-417 0c-84,0 -185,17 -256,64 -75,48 -118,118 -137,200 23,-33 50,-60 94,-81 66,-32 142,-47 216,-48z"/>
    </g>
   </g>
   <g>
    <path class="fil0" d="M1372 1023l1628 0c-55,91 -175,143 -279,143l-530 0c-185,0 -312,83 -317,201 -3,55 33,111 82,142 56,34 130,48 208,47 155,-2 279,-40 345,-131l-147 0c-102,-1 -168,-53 -197,-126l806 0c-70,53 -123,94 -164,127 -86,69 -86,81 -143,128 -123,99 -269,163 -422,159 -170,-5 -379,-9 -605,-8 -90,0 -178,0 -266,1 180,-31 328,-166 318,-377 -8,-185 -124,-279 -317,-306z"/>
    <g>
     <path class="fil3" d="M1704 1368l155 0c0,-1 0,-1 0,-2 1,-18 5,-36 11,-53 20,-54 64,-93 114,-118 63,-32 137,-44 207,-44l530 0c90,0 194,-40 252,-114l-1480 0c123,45 204,136 211,291 0,13 0,26 0,40zm483 -55c12,22 27,40 44,55l627 0c23,-19 47,-37 70,-55l-741 0z"/>
     <path class="fil4" d="M1704 1368c-2,40 -10,80 -25,118 -18,46 -45,87 -80,122 -36,36 -79,63 -126,83 55,0 110,0 164,0 202,-1 403,2 605,7 38,1 76,-2 114,-9 110,-21 212,-76 299,-146 17,-14 33,-29 48,-44 12,-12 24,-23 36,-34 19,-18 39,-34 60,-50 19,-16 39,-32 59,-47l-627 0c35,28 81,42 132,42l174 1 -16 23c-80,109 -230,135 -356,136 -73,1 -153,-11 -216,-49 -52,-32 -92,-91 -90,-153l-155 0z"/>
    </g>
   </g>
   <g>
    <g>
     <path class="fil0" d="M10 1982c-5,0 -10,-5 -10,-10l0 -85 5 0c15,0 28,12 28,28l0 34 115 0c18,0 32,-14 32,-33 0,-18 -14,-32 -32,-32l-120 0c-15,0 -28,-13 -28,-29l0 -4 148 0c36,0 65,29 65,65 0,37 -29,66 -65,66l-138 0z"/>
     <path class="fil5" d="M32 1909c-2,-13 -14,-22 -27,-22l-5 0 0 22 32 0zm-32 -54c0,16 13,29 28,29l120 0c15,0 28,10 32,25l33 0c-4,-33 -32,-58 -65,-58l-148 0 0 4z"/>
    </g>
    <g>
     <path class="fil0" d="M342 1949c-11,0 -20,-9 -20,-20l0 -50c0,-16 -13,-28 -28,-28l-5 0 0 78c0,29 24,53 53,53l107 0c29,0 53,-24 53,-53l0 -50c0,-16 -12,-28 -28,-28l-5 0 0 78c0,11 -9,20 -20,20l-107 0z"/>
     <path class="fil5" d="M289 1851l0 58 33 0 0 -30c0,-16 -13,-28 -28,-28l-5 0zm180 0l0 58 33 0 0 -30c0,-16 -12,-28 -28,-28l-5 0z"/>
    </g>
    <g>
     <path class="fil0" d="M591 1851l43 0c5,0 11,2 15,6l90 90c2,2 5,2 8,2l16 0 0 -70c0,-16 13,-28 28,-28l5 0 0 123c0,4 -4,8 -8,8l-52 0c-5,0 -11,-2 -15,-6l-89 -90c-2,-2 -6,-2 -8,-2l-9 0 0 98 -4 0c-16,0 -28,-13 -28,-28l0 -95c0,-5 3,-8 8,-8z"/>
     <path class="fil5" d="M583 1859l0 50 32 0 0 -25 9 0c2,0 6,0 8,2l23 23 46 0 -52 -52c-4,-4 -10,-6 -15,-6l-43 0c-5,0 -8,3 -8,8zm208 -8c-15,0 -28,12 -28,28l0 30 33 0 0 -58 -5 0z"/>
    </g>
    <g>
     <path class="fil0" d="M978 1851l0 4c0,16 -13,29 -28,29l-8 0 0 65 36 0 0 5c0,15 -13,28 -28,28l-76 0 0 -5c0,-15 12,-28 28,-28l7 0 0 -65 -35 0 0 -5c0,-16 12,-28 28,-28l76 0z"/>
     <path class="fil5" d="M902 1851c-16,0 -28,12 -28,28l0 5 35 0 0 25 33 0 0 -25 8 0c15,0 28,-13 28,-29l0 -4 -76 0z"/>
    </g>
    <g>
     <path class="fil0" d="M1268 1920c0,-38 -32,-69 -70,-69l-129 0c-8,0 -15,6 -15,14l0 89c0,15 13,28 28,28l5 0 0 -98 111 0c14,0 26,8 32,19l-136 0c0,15 12,27 27,27l114 0 0 24c0,15 12,28 28,28l5 0 0 -62z"/>
     <path class="fil5" d="M1069 1851c-8,0 -15,6 -15,14l0 44 33 0 0 -25 111 0c14,0 26,8 32,19l-136 0c0,2 0,4 1,6l172 0c-6,-33 -35,-58 -69,-58l-129 0z"/>
    </g>
    <g>
     <path class="fil0" d="M1552 1884c-18,0 -32,14 -32,32 0,19 14,33 32,33l115 0 0 -19 -99 0c0,-15 12,-27 26,-27l98 0c4,0 8,4 8,8l0 48c0,13 -10,23 -22,23l-126 0c-36,0 -65,-29 -65,-66 0,-36 29,-65 65,-65l148 0 0 4c0,16 -13,29 -28,29l-120 0z"/>
     <path class="fil5" d="M1667 1949l-115 0c-18,0 -32,-14 -32,-33 0,-2 0,-5 0,-7l-33 0c0,2 0,5 0,7 0,37 29,66 65,66l126 0c12,0 22,-10 22,-23l0 -48c0,-1 0,-1 0,-2l-123 0c-6,5 -9,12 -9,21l99 0 0 19z"/>
    </g>
    <g>
     <path class="fil0" d="M1982 1920c0,-38 -31,-69 -70,-69l-129 0c-8,0 -14,6 -14,14l0 89c0,15 13,28 28,28l5 0 0 -98 110 0c14,0 27,8 33,19l-136 0c0,15 12,27 27,27l113 0 0 24c0,15 13,28 28,28l5 0 0 -62z"/>
     <path class="fil5" d="M1769 1909l0 45c0,15 13,28 28,28l5 0 0 -73 -33 0zm41 0c2,12 13,21 26,21l113 0 0 24c0,15 13,28 28,28l5 0 0 -62c0,-3 0,-7 -1,-11l-171 0z"/>
    </g>
    <g>
     <path class="fil0" d="M2178 1943l-45 -71c-6,-9 -14,-21 -27,-21l-18 0 -26 0c-5,0 -8,3 -8,8l0 95c0,16 12,28 27,28l7 0 0 -98 9 0c2,0 4,0 5,2l48 74c10,15 24,20 41,20 16,0 30,-5 40,-20l48 -74c1,-2 3,-2 5,-2l9 0 0 70c0,16 12,28 28,28l7 0 0 -123c0,-5 -4,-8 -8,-8l-27 0 0 0 -18 0c-13,0 -20,12 -26,21l-46 71c-2,3 -5,4 -12,4 -8,0 -11,-1 -13,-4z"/>
     <path class="fil5" d="M2054 1909l0 45c0,16 12,28 27,28l7 0 0 -73 -34 0zm177 51l33 -51 -39 0 -22 34c-2,3 -5,4 -12,4 -8,0 -11,-1 -13,-4l-22 -34 -39 0 33 51c10,15 24,20 41,20 16,0 30,-5 40,-20zm62 -51l0 45c0,16 12,28 28,28l7 0 0 -73 -35 0z"/>
    </g>
    <g>
     <path class="fil0" d="M2395 1865l0 51c0,37 30,66 66,66l147 0 0 -5c0,-15 -12,-28 -28,-28l-119 0c-18,0 -33,-14 -33,-33l0 -32 180 0 0 -5c0,-16 -12,-28 -28,-28l-171 0c-7,0 -14,6 -14,14zm38 65l0 0 110 0c14,0 26,-12 26,-27l0 0 -109 0c-15,0 -27,12 -27,27z"/>
     <path class="fil5" d="M2395 1916c0,37 30,66 66,66l147 0 0 -5c0,-15 -12,-28 -28,-28l-119 0c-18,0 -33,-14 -33,-33l0 -7 -33 0 0 7zm38 14l110 0c12,0 23,-9 26,-21l-126 0c-6,5 -10,12 -10,21z"/>
    </g>
    <g>
     <path class="fil0" d="M2855 1930c-5,11 -16,19 -29,19l-121 0c-16,0 -29,13 -29,28l0 5 150 0c35,0 64,-29 64,-63l0 -8c0,-4 -4,-8 -8,-8l-171 0c5,-11 16,-19 29,-19l122 0c15,0 28,-13 28,-29l0 -4 -150 0c-35,0 -64,28 -64,63l0 8c0,4 4,8 9,8l170 0z"/>
     <path class="fil5" d="M2676 1922c0,4 4,8 9,8l170 0c-5,11 -16,19 -29,19l-121 0c-16,0 -29,13 -29,28l0 5 150 0c35,0 64,-29 64,-63l0 -8c0,-1 0,-1 -1,-2l-212 0c0,2 -1,4 -1,5l0 8z"/>
    </g>
   </g>
  </g>
 </g>
</svg>
