<?xml version="1.0" encoding="UTF-8"?>
<!DOCTYPE svg PUBLIC "-//W3C//DTD SVG 1.1//EN" "http://www.w3.org/Graphics/SVG/1.1/DTD/svg11.dtd">
<!-- Creator: CorelDRAW X7 -->
<svg xmlns="http://www.w3.org/2000/svg" xml:space="preserve" width="3000px" height="3000px" version="1.1" style="shape-rendering:geometricPrecision; text-rendering:geometricPrecision; image-rendering:optimizeQuality; fill-rule:evenodd; clip-rule:evenodd"
viewBox="0 0 3000 3000"
 xmlns:xlink="http://www.w3.org/1999/xlink">
 <defs>
  <style type="text/css">
   <![CDATA[
    .fil0 {fill:#FEFEFE;fill-rule:nonzero}
    .fil2 {fill:#757475;fill-rule:nonzero}
    .fil1 {fill:#E73328;fill-rule:nonzero}
    .fil3 {fill:black;fill-rule:nonzero}
   ]]>
  </style>
 </defs>
 <g id="Layer_x0020_1">
  <metadata id="CorelCorpID_0Corel-Layer"/>
  <g id="_1699919856768">
   <g>
    <path class="fil0" d="M2514 1419c27,-50 42,-107 42,-168 0,-202 -170,-366 -380,-366 -49,0 -96,9 -139,25 5,37 13,73 24,109 29,-11 60,-17 93,-17 135,0 245,104 245,233 0,49 -16,95 -44,133 49,24 103,41 159,51z"/>
    <path class="fil1" d="M2154 1002c-33,0 -64,6 -93,17 39,120 116,231 225,308 21,15 45,29 69,41 28,-38 44,-84 44,-133 0,-129 -110,-233 -245,-233z"/>
    <path class="fil1" d="M2715 1129c90,-69 316,-218 281,-278 -28,-49 -152,10 -292,86 -110,60 -86,-12 -16,-118 61,-93 154,-218 102,-252 -60,-40 -244,179 -287,222 -43,43 -82,67 -61,-54 29,-160 35,-243 -1,-253 -4,-2 -9,-2 -13,-2l-1 0c-43,1 -75,67 -143,226 -54,126 -101,148 -107,35 -7,-203 -59,-156 -79,-125 -54,86 -73,190 -61,294 43,-16 90,-25 139,-25 210,0 380,164 380,366 0,61 -15,118 -42,168 119,22 246,12 341,-36 16,-8 54,-31 30,-64 -48,-65 -134,-31 -226,-57 -81,-24 -9,-84 56,-133z"/>
    <path class="fil2" d="M2355 1368c-44,60 -118,100 -201,100 -135,0 -245,-104 -245,-233 0,-97 63,-181 152,-216 -11,-36 -19,-72 -24,-109 -141,54 -241,186 -241,341 0,202 170,366 380,366 147,0 274,-80 338,-198 -56,-10 -110,-27 -159,-51z"/>
   </g>
   <g>
    <path class="fil3" d="M311 1276c0,-14 -13,-27 -28,-27l-249 0c-14,0 -27,13 -27,27 0,14 12,26 27,26l96 0 0 286c0,16 13,28 29,28 16,0 29,-12 29,-28l0 -286 95 0c15,0 28,-12 28,-26l0 0z"/>
    <path class="fil3" d="M393 1384c47,0 69,35 74,70l-151 0c8,-42 38,-70 77,-70l0 0zm1 -49c-76,0 -136,62 -136,142l0 1c0,81 61,142 141,142 42,0 75,-13 105,-41 6,-5 9,-12 9,-19 0,-13 -11,-24 -26,-24 -6,0 -11,2 -17,6 -21,19 -43,28 -70,28 -44,0 -76,-28 -84,-71l182 0c15,0 27,-11 27,-26 0,-69 -45,-138 -131,-138l0 0z"/>
    <path class="fil3" d="M589 1232c-16,0 -28,12 -28,28l0 329c0,15 12,27 28,27 16,0 28,-12 28,-27l0 -329c0,-16 -13,-28 -28,-28l0 0z"/>
    <path class="fil3" d="M813 1462l81 -77c5,-5 10,-12 10,-21 0,-15 -12,-26 -26,-26 -9,0 -16,3 -22,10l-129 127 0 -215c0,-16 -12,-28 -28,-28 -15,0 -28,12 -28,28l0 329c0,15 13,27 29,27 15,0 27,-12 27,-27l0 -46 46 -44 86 105c6,9 13,12 23,12 16,0 28,-11 28,-26 0,-7 -2,-12 -7,-18l-90 -110 0 0z"/>
    <path class="fil3" d="M971 1476c0,-52 38,-91 89,-91 50,0 90,41 90,92l0 1c0,52 -39,91 -89,91 -50,0 -90,-40 -90,-92l0 -1zm90 -141c-83,0 -147,62 -147,142l0 1c0,80 64,142 146,142 82,0 147,-63 147,-143l0 -1c0,-79 -64,-141 -146,-141l0 0z"/>
    <path class="fil3" d="M1552 1335c-38,0 -69,14 -92,44 -19,-29 -49,-44 -86,-44 -37,0 -60,15 -77,32l0 -2c0,-15 -13,-27 -29,-27 -15,0 -28,12 -28,27l0 224c0,15 13,27 29,27 16,0 28,-12 28,-27l0 -130c0,-42 27,-73 65,-73 38,0 60,25 60,68l0 135c0,15 12,27 28,27 15,0 28,-12 28,-27l0 -132c0,-42 26,-71 64,-71 39,0 60,25 60,69l0 134c0,15 13,27 29,27 15,0 28,-12 28,-27l0 -143c0,-68 -41,-111 -107,-111l0 0z"/>
   </g>
   <g>
    <path class="fil3" d="M284 1703c-15,0 -27,12 -27,26l0 316c0,14 12,26 27,26 14,0 26,-12 26,-26l0 -316c0,-14 -12,-26 -26,-26l0 0z"/>
    <path class="fil3" d="M514 1792c-36,0 -64,13 -86,38l0 -10c0,-14 -11,-25 -26,-25 -14,0 -25,11 -25,25l0 225c0,15 11,26 26,26 14,0 25,-11 25,-26l0 -131c0,-44 31,-75 74,-75 44,0 68,26 68,72l0 134c0,15 12,26 26,26 15,0 26,-11 26,-26l0 -143c0,-67 -43,-110 -108,-110l0 0z"/>
    <path class="fil3" d="M890 1932l0 1c0,59 -47,95 -91,95 -50,0 -88,-41 -88,-95l0 -1c0,-55 37,-94 88,-94 45,0 91,35 91,94l0 0zm24 -244c-15,0 -26,11 -26,26l0 122c-25,-29 -58,-44 -96,-44 -65,0 -133,49 -133,141l0 1c0,91 68,140 133,140 38,0 70,-15 96,-46l0 17c0,15 12,26 26,26 15,0 26,-11 26,-26l0 -331c0,-15 -11,-26 -26,-26l0 0z"/>
    <path class="fil3" d="M1032 1932c0,-54 40,-94 92,-94 52,0 93,42 93,95l0 1c0,54 -40,94 -92,94 -52,0 -93,-42 -93,-95l0 -1zm93 -140c-81,0 -145,62 -145,141l0 1c0,79 63,140 144,140 82,0 146,-62 146,-141l0 -1c0,-78 -64,-140 -145,-140l0 0z"/>
    <path class="fil3" d="M1446 1792c-35,0 -64,13 -85,38l0 -10c0,-14 -12,-25 -26,-25 -15,0 -26,11 -26,25l0 225c0,15 11,26 26,26 15,0 26,-11 26,-26l0 -131c0,-44 30,-75 74,-75 43,0 68,26 68,72l0 134c0,15 11,26 26,26 14,0 25,-11 25,-26l0 -143c0,-67 -42,-110 -108,-110l0 0z"/>
    <path class="fil3" d="M1643 1913c7,-46 39,-77 80,-77 50,0 73,39 78,77l-158 0 0 0zm81 -121c-75,0 -134,62 -134,141l0 1c0,80 60,140 139,140 42,0 75,-12 105,-40 5,-5 8,-11 8,-17 0,-12 -11,-22 -24,-22 -5,0 -10,1 -15,5 -22,20 -45,29 -73,29 -46,0 -80,-30 -87,-76l186 0c14,0 25,-11 25,-24 0,-68 -45,-137 -130,-137l0 0z"/>
    <path class="fil3" d="M1997 1909l-1 0c-33,-10 -64,-19 -64,-39l0 -1c0,-19 19,-32 46,-32 21,0 44,7 67,19 2,2 6,3 11,3 13,0 24,-10 24,-22 0,-9 -5,-16 -13,-21 -28,-15 -60,-23 -88,-23 -57,0 -97,33 -97,80l0 1c0,53 54,68 93,79 35,9 62,18 62,40l0 1c0,21 -20,35 -49,35 -27,0 -55,-9 -82,-26 -3,-3 -8,-5 -13,-5 -13,0 -23,10 -23,23 0,9 5,15 10,19 30,21 69,33 106,33 60,0 101,-33 101,-83l0 -1c0,-54 -55,-70 -90,-80l0 0z"/>
    <path class="fil3" d="M2157 1795c-14,0 -26,11 -26,25l0 225c0,15 12,26 27,26 14,0 25,-11 25,-26l0 -225c0,-14 -11,-25 -26,-25l0 0z"/>
    <path class="fil3" d="M2420 1947l0 20c0,37 -36,65 -84,65 -29,0 -61,-15 -61,-46l0 -1c0,-30 27,-48 72,-48 24,0 48,3 73,10l0 0zm20 -123c-21,-20 -51,-30 -90,-30 -33,0 -60,6 -90,18 -7,3 -14,11 -14,21 0,13 10,23 23,23 3,0 6,-1 10,-2 21,-10 43,-14 66,-14 34,0 74,11 74,65l0 1c-20,-5 -43,-9 -76,-9 -74,0 -120,34 -120,89l0 1c0,57 53,87 105,87 44,0 73,-17 91,-35l0 8c0,14 11,24 25,24 14,0 25,-11 25,-25l0 -142c0,-34 -10,-61 -29,-80l0 0z"/>
   </g>
   <g>
    <path class="fil3" d="M25 2491c-15,0 -25,-8 -25,-21 0,-3 0,-7 1,-11l15 -55 -13 0 4 -16 14 0 7 -29 18 0 -8 29 31 0 -4 16 -31 0 -15 56c0,2 0,5 0,6 0,6 4,9 11,9 4,0 9,-1 14,-3l3 -1 -5 17 0 0c-6,2 -11,3 -17,3z"/>
    <path class="fil3" d="M152 2489l-18 0 16 -57c1,-3 1,-8 1,-11 0,-11 -7,-18 -20,-18 -15,0 -29,12 -34,30l-15 56 -18 0 1 -2 37 -139 18 0 -14 52c7,-7 17,-14 31,-14 20,0 33,13 33,32 0,5 -2,11 -3,16l-15 55z"/>
    <path class="fil3" d="M207 2431l60 0c0,-2 0,-3 0,-6 0,-11 -6,-23 -23,-23 -16,0 -30,11 -37,29zm25 61c-27,0 -45,-18 -45,-44 0,-29 24,-62 58,-62 27,0 40,20 40,39 0,7 -2,14 -4,20l-1 1 -76 0c0,1 0,1 0,2 0,17 11,28 28,28 14,0 22,-6 29,-11l2 -1 9 12 -1 1c-8,7 -20,15 -39,15z"/>
    <polygon class="fil3" points="453,2490 437,2490 432,2417 387,2490 372,2490 364,2388 382,2388 387,2462 432,2388 446,2388 451,2463 496,2388 515,2388 "/>
    <path class="fil3" d="M571 2402c-21,0 -40,21 -40,44 0,18 11,29 29,29 21,0 40,-20 40,-43 0,-18 -11,-30 -29,-30zm-12 90c-27,0 -46,-19 -46,-46 0,-32 27,-60 59,-60 27,0 46,19 46,46 0,32 -28,60 -59,60z"/>
    <path class="fil3" d="M645 2489l-18 0 27 -101 18 0 -5 20c11,-14 25,-21 40,-21 1,0 2,0 3,0l2 0 -5 19 -3 0c-22,0 -42,17 -49,44l-10 39z"/>
    <polygon class="fil3" points="722,2489 704,2489 742,2348 760,2348 760,2350 "/>
    <path class="fil3" d="M817 2402c-21,0 -39,20 -39,45 0,17 11,28 26,28 21,0 42,-22 42,-44 0,-17 -12,-29 -29,-29zm-17 90c-23,0 -40,-18 -40,-43 0,-34 25,-63 56,-63 21,0 31,12 36,21l16 -59 18 0 -38 141 -18 0 4 -12c-11,10 -22,15 -34,15z"/>
    <path class="fil3" d="M987 2370l-21 0 6 -19 20 0 -5 19zm-34 119l-18 0 28 -101 18 0 -28 101z"/>
    <path class="fil3" d="M1072 2489l-18 0 16 -57c1,-3 1,-8 1,-11 0,-12 -7,-18 -20,-18 -15,0 -29,12 -34,30l-15 56 -18 0 27 -101 18 0 -3 12c7,-7 17,-14 31,-14 20,0 33,13 33,32 0,5 -2,11 -3,16l-15 55z"/>
    <path class="fil3" d="M1163 2520c-8,0 -15,-2 -22,-7l-2 -1 10 -14 2 2c3,2 9,4 13,4 9,0 16,-5 24,-17l-18 -99 19 0 13 79 51 -79 20 0 -69 104c-13,20 -25,28 -41,28z"/>
    <path class="fil3" d="M1326 2402c-21,0 -40,21 -40,44 0,18 11,29 29,29 21,0 40,-20 40,-43 0,-18 -11,-30 -29,-30zm-12 90c-27,0 -46,-19 -46,-46 0,-32 28,-60 59,-60 28,0 47,19 47,46 0,32 -28,60 -60,60z"/>
    <path class="fil3" d="M1423 2491c-20,0 -32,-12 -32,-31 0,-4 0,-10 2,-16l15 -56 18 0 -16 58c0,3 -1,7 -1,10 0,12 8,19 20,19 15,0 29,-13 34,-30l15 -57 18 0 -27 101 -18 0 3 -11c-7,7 -17,13 -31,13z"/>
    <path class="fil3" d="M1516 2489l-18 0 27 -101 18 0 -5 20c13,-15 27,-22 43,-21l2 0 -5 19 -2 0c-23,0 -42,17 -49,44l-11 39z"/>
    <path class="fil3" d="M1720 2489l-18 0 15 -57c1,-3 1,-7 1,-11 0,-11 -7,-18 -20,-18 -15,0 -29,12 -34,30l-15 56 -18 0 1 -2 37 -139 18 0 -14 52c8,-7 17,-14 31,-14 20,0 33,13 33,32 0,5 -2,11 -3,16l-14 55z"/>
    <path class="fil3" d="M1794 2440c-16,0 -28,9 -28,21 0,10 8,16 19,16 17,0 33,-12 37,-28l1 -5c-7,-2 -17,-4 -29,-4zm-14 51c-19,0 -32,-11 -32,-28 0,-22 18,-37 45,-37 10,0 21,1 34,5l0 -1c1,-3 1,-6 1,-9 0,-15 -13,-18 -25,-18 -9,0 -17,2 -27,5l-1 1 -4 -16 2 0c11,-4 21,-6 33,-6 25,0 40,12 40,32 0,4 -1,9 -2,14l-15 56 -18 0 3 -11c-10,9 -21,13 -34,13z"/>
    <path class="fil3" d="M1944 2489l-17 0 15 -57c1,-3 1,-7 1,-11 0,-11 -7,-18 -20,-18 -15,0 -29,12 -34,30l-15 56 -18 0 27 -101 18 0 -3 12c7,-7 17,-14 31,-14 20,0 33,13 33,32 0,4 -1,9 -3,16l-15 55z"/>
    <path class="fil3" d="M2037 2402c-22,0 -39,20 -39,45 0,17 10,28 25,28 22,0 42,-22 42,-44 0,-17 -12,-29 -28,-29zm-18 90c-23,0 -40,-18 -40,-43 0,-34 26,-63 56,-63 17,0 29,8 37,21l16 -59 17 0 -37 141 -18 0 3 -12c-10,10 -21,15 -34,15z"/>
   </g>
  </g>
 </g>
</svg>
